<?xml version="1.0" encoding="UTF-8" standalone="no"?>
<svg
   xmlns:dc="http://purl.org/dc/elements/1.1/"
   xmlns:cc="http://creativecommons.org/ns#"
   xmlns:rdf="http://www.w3.org/1999/02/22-rdf-syntax-ns#"
   xmlns:svg="http://www.w3.org/2000/svg"
   xmlns="http://www.w3.org/2000/svg"
   xmlns:xlink="http://www.w3.org/1999/xlink"
   xmlns:sodipodi="http://sodipodi.sourceforge.net/DTD/sodipodi-0.dtd"
   xmlns:inkscape="http://www.inkscape.org/namespaces/inkscape"
   width="960"
   height="576"
   viewBox="0 0 253.99999 152.4"
   version="1.1"
   id="svg8"
   inkscape:version="1.0.2-2 (e86c870879, 2021-01-15)"
   sodipodi:docname="dessin-2.svg">
  <defs
     id="defs2">
    <linearGradient
       inkscape:collect="always"
       id="linearGradient1902">
      <stop
         style="stop-color:#484c4a;stop-opacity:1;"
         offset="0"
         id="stop1898" />
      <stop
         style="stop-color:#484c4a;stop-opacity:0;"
         offset="1"
         id="stop1900" />
    </linearGradient>
    <linearGradient
       inkscape:collect="always"
       xlink:href="#linearGradient1902"
       id="linearGradient1904"
       x1="197.2449"
       y1="105.30419"
       x2="113.85682"
       y2="136.30746"
       gradientUnits="userSpaceOnUse" />
    <linearGradient
       inkscape:collect="always"
       xlink:href="#linearGradient1902"
       id="linearGradient1933"
       gradientUnits="userSpaceOnUse"
       x1="211.67746"
       y1="114.65862"
       x2="74.568199"
       y2="151.8091"
       gradientTransform="translate(-68.554639,8.1517241)" />
  </defs>
  <sodipodi:namedview
     id="base"
     pagecolor="#ffffff"
     bordercolor="#666666"
     borderopacity="1.0"
     inkscape:pageopacity="0.0"
     inkscape:pageshadow="2"
     inkscape:zoom="0.98994949"
     inkscape:cx="400"
     inkscape:cy="350.8934"
     inkscape:document-units="mm"
     inkscape:current-layer="layer1"
     inkscape:document-rotation="0"
     showgrid="false"
     units="px"
     inkscape:window-width="1920"
     inkscape:window-height="1001"
     inkscape:window-x="-9"
     inkscape:window-y="-9"
     inkscape:window-maximized="1" />
  <metadata
     id="metadata5">
    <rdf:RDF>
      <cc:Work
         rdf:about="">
        <dc:format>image/svg+xml</dc:format>
        <dc:type
           rdf:resource="http://purl.org/dc/dcmitype/StillImage" />
        <dc:title></dc:title>
      </cc:Work>
    </rdf:RDF>
  </metadata>
  <g
     inkscape:label="Calque 1"
     inkscape:groupmode="layer"
     id="layer1">
    <rect
       style="fill:#636563;fill-opacity:1;stroke:none;stroke-width:0.765;stroke-miterlimit:4;stroke-dasharray:none;stroke-dashoffset:0;stroke-opacity:1"
       id="rect1880"
       width="158.22357"
       height="153.67996"
       x="0.53453904"
       y="-0.53453904" />
    <rect
       style="fill:#494a4c;fill-opacity:1;stroke:none;stroke-width:0.765;stroke-miterlimit:4;stroke-dasharray:none;stroke-dashoffset:0;stroke-opacity:1"
       id="rect1882"
       width="95.415199"
       height="153.14543"
       x="158.75812"
       y="-0.53453904"
       ry="0" />
    <path
       id="rect1828"
       style="fill:#61320f;stroke-width:0.765;stroke-dasharray:none;fill-opacity:1;stroke:#61320f;stroke-opacity:1;stroke-miterlimit:4;stroke-dashoffset:0"
       d="m 50.781209,85.793522 105.036931,0.534539 32.07234,36.081389 -144.592818,0 z"
       sodipodi:nodetypes="ccccc" />
    <rect
       style="fill:#815b40;fill-opacity:1;stroke:#512113;stroke-width:0.765;stroke-miterlimit:4;stroke-dasharray:none;stroke-dashoffset:0;stroke-opacity:1"
       id="rect1831"
       width="144.5928"
       height="20.847019"
       x="43.297661"
       y="122.40945" />
    <rect
       style="fill:#815b40;fill-opacity:1;stroke:#512113;stroke-width:0.765;stroke-miterlimit:4;stroke-dasharray:none;stroke-dashoffset:0;stroke-opacity:1"
       id="rect1831-0"
       width="144.5928"
       height="9.0871563"
       x="43.297668"
       y="143.25647" />
    <ellipse
       style="fill:#61320f;fill-opacity:1;stroke:none;stroke-width:0.765;stroke-miterlimit:4;stroke-dasharray:none;stroke-dashoffset:0;stroke-opacity:1"
       id="path1855"
       cx="112.92138"
       cy="134.43657"
       rx="5.4790254"
       ry="4.2763124" />
    <path
       id="rect1877"
       style="fill:#ece3c1;fill-opacity:1;stroke:none;stroke-width:0.765;stroke-miterlimit:4;stroke-dasharray:none;stroke-dashoffset:0;stroke-opacity:1"
       d="m 174.25974,-0.52379436 h 57.99748 L 233.05903,141.12905 174.52701,81.52795 Z"
       sodipodi:nodetypes="ccccc" />
    <path
       id="rect1889"
       style="fill:#484c4a;fill-opacity:1;stroke:none;stroke-width:0.765;stroke-miterlimit:4;stroke-dasharray:none;stroke-dashoffset:0;stroke-opacity:1"
       d="M 0.26726921,110.91686 50.78121,85.793526 l 0.534539,67.351924 -50.78120996,-3e-5 z"
       sodipodi:nodetypes="ccccc" />
    <g
       id="g2149"
       transform="translate(-58.532027,-84.457171)">
      <path
         id="rect1986-6-9"
         style="fill:#4c4d4b;fill-opacity:1;stroke:none;stroke-width:0.765;stroke-miterlimit:4;stroke-dasharray:none;stroke-dashoffset:0;stroke-opacity:1"
         d="m 153.96925,177.12704 c 1.5594,-2.44406 16.05946,-2.91197 18.44161,-1.60362 2.94333,1.61656 15.24609,21.56724 11.75986,24.05426 -2.82341,2.01417 -21.01349,1.86683 -24.04889,1.06908 -2.79306,-0.73406 -8.01829,-20.59558 -6.15258,-23.51972 z"
         sodipodi:nodetypes="sssss" />
      <path
         id="rect1986-0"
         style="fill:#000000;fill-opacity:1;stroke:none;stroke-width:0.765;stroke-miterlimit:4;stroke-dasharray:none;stroke-dashoffset:0;stroke-opacity:1"
         d="m 154.19344,174.22905 c 1.5594,-2.44406 16.05945,-2.91197 18.4416,-1.60362 2.94333,1.61656 14.04338,22.50268 11.75986,24.05426 -2.86867,1.94917 -21.01349,1.86683 -24.04889,1.06908 -2.79306,-0.73406 -8.01828,-20.59558 -6.15257,-23.51972 z"
         sodipodi:nodetypes="sssss" />
      <path
         id="rect1986-3-5"
         style="fill:#6a696b;fill-opacity:1;stroke:none;stroke-width:0.765;stroke-miterlimit:4;stroke-dasharray:none;stroke-dashoffset:0;stroke-opacity:1"
         d="m 156.37468,176.1916 c 1.5594,-2.44406 13.38676,-2.77834 15.76891,-1.46999 2.94333,1.61656 8.16345,9.67374 5.87993,11.22532 -2.86867,1.94917 -15.80173,1.06503 -18.83713,0.26728 -2.79306,-0.73406 -4.67742,-7.09847 -2.81171,-10.02261 z"
         sodipodi:nodetypes="sssss" />
      <path
         id="rect2029-04"
         style="fill:#6a696b;fill-opacity:1;stroke:none;stroke-width:0.765;stroke-miterlimit:4;stroke-dasharray:none;stroke-dashoffset:0;stroke-opacity:1"
         d="m 159.53883,189.06252 4.54359,0.13363 1.06907,2.80634 h -4.54358 z"
         sodipodi:nodetypes="ccccc" />
      <path
         id="rect2029-6-1"
         style="fill:#6a696b;fill-opacity:1;stroke:none;stroke-width:0.765;stroke-miterlimit:4;stroke-dasharray:none;stroke-dashoffset:0;stroke-opacity:1"
         d="m 167.69055,189.19616 4.94449,-0.13364 1.46998,3.07361 h -5.34539 z"
         sodipodi:nodetypes="ccccc" />
      <path
         id="rect2029-0-2"
         style="fill:#6a696b;fill-opacity:1;stroke:none;stroke-width:0.765;stroke-miterlimit:4;stroke-dasharray:none;stroke-dashoffset:0;stroke-opacity:1"
         d="m 175.30773,188.66162 4.11837,-0.40091 1.91951,3.19914 -4.9688,0.14174 z"
         sodipodi:nodetypes="ccccc" />
      <path
         id="rect2029-4-1"
         style="fill:#6a696b;fill-opacity:1;stroke:none;stroke-width:0.765;stroke-miterlimit:4;stroke-dasharray:none;stroke-dashoffset:0;stroke-opacity:1"
         d="m 161.13708,193.59 4.54359,0.13363 1.06907,2.80634 h -4.54358 z"
         sodipodi:nodetypes="ccccc" />
      <path
         id="rect2029-1-8"
         style="fill:#6a696b;fill-opacity:1;stroke:none;stroke-width:0.765;stroke-miterlimit:4;stroke-dasharray:none;stroke-dashoffset:0;stroke-opacity:1"
         d="m 169.36435,193.35494 4.96882,-0.0243 1.68328,2.91704 -5.77201,0.28344 z"
         sodipodi:nodetypes="ccccc" />
      <path
         id="rect2029-18-0"
         style="fill:#6a696b;fill-opacity:1;stroke:none;stroke-width:0.765;stroke-miterlimit:4;stroke-dasharray:none;stroke-dashoffset:0;stroke-opacity:1"
         d="m 177.28395,193.01768 3.97662,-0.008 1.35255,3.08983 -4.40183,-0.0945 z"
         sodipodi:nodetypes="ccccc" />
    </g>
    <path
       id="rect1884"
       style="fill:#f9fccc;fill-opacity:0.217984;stroke:none;stroke-width:0.765;stroke-miterlimit:4;stroke-dasharray:none;stroke-dashoffset:0;stroke-opacity:1"
       d="m 167.04346,-19.499931 65.21376,18.97613659 0.80181,141.65284441 -11.89349,11.35896 -220.63100096,0.65741 8e-6,-89.524529 z"
       sodipodi:nodetypes="ccccccc" />
    <path
       id="rect1895-0"
       style="fill:url(#linearGradient1933);fill-opacity:1;stroke:none;stroke-width:0.765;stroke-miterlimit:4;stroke-dasharray:none;stroke-dashoffset:0;stroke-opacity:1"
       d="m -4.409942,149.5373 122.142162,-26.99423 47.97489,0.13364 -85.392619,30.06782 z"
       sodipodi:nodetypes="ccccc" />
    <rect
       style="fill:#484c4a;fill-opacity:0.57220709;stroke:none;stroke-width:0.765;stroke-miterlimit:4;stroke-dasharray:none;stroke-dashoffset:0;stroke-opacity:1"
       id="rect1936"
       width="136.84198"
       height="29.934185"
       x="51.048477"
       y="122.40945" />
    <ellipse
       style="fill:#684c0f;fill-opacity:1;stroke:none;stroke-width:0.765;stroke-miterlimit:4;stroke-dasharray:none;stroke-dashoffset:0;stroke-opacity:1"
       id="path1855-2-0"
       cx="114.9259"
       cy="131.76389"
       rx="5.4790254"
       ry="4.2763124" />
    <path
       id="rect1895"
       style="fill:url(#linearGradient1904);fill-opacity:1;stroke:none;stroke-width:0.765;stroke-miterlimit:4;stroke-dasharray:none;stroke-dashoffset:0;stroke-opacity:1"
       d="m 107.70963,122.14217 89.53528,-16.83798 6.41447,6.94901 -37.95227,10.42351 z"
       sodipodi:nodetypes="ccccc" />
    <path
       id="rect1892"
       style="fill:#484c4a;fill-opacity:1;stroke:none;stroke-width:0.765;stroke-miterlimit:4;stroke-dasharray:none;stroke-dashoffset:0;stroke-opacity:1"
       d="M 197.77945,-0.26726955 203.39211,-2.1083155e-8 203.65938,112.2532 l -6.41447,-6.94901 z"
       sodipodi:nodetypes="ccccc" />
    <ellipse
       style="fill:#684c0f;fill-opacity:1;stroke:none;stroke-width:0.765;stroke-miterlimit:4;stroke-dasharray:none;stroke-dashoffset:0;stroke-opacity:1"
       id="path1855-2-0-0"
       cx="115.99498"
       cy="153.14543"
       rx="5.4790254"
       ry="4.2763124" />
    <path
       id="rect1986-6"
       style="fill:#4c4d4b;fill-opacity:1;stroke:none;stroke-width:0.765;stroke-miterlimit:4;stroke-dasharray:none;stroke-dashoffset:0;stroke-opacity:1"
       d="m 94.923768,170.2087 c 1.5594,-2.44406 16.059452,-2.91197 18.441602,-1.60362 2.94333,1.61656 15.24609,21.56724 11.75986,24.05426 -2.82341,2.01417 -21.01349,1.86683 -24.04889,1.06908 -2.793052,-0.73406 -8.018282,-20.59558 -6.152572,-23.51972 z"
       sodipodi:nodetypes="sssss" />
    <path
       id="rect1986"
       style="fill:#000000;fill-opacity:1;stroke:none;stroke-width:0.765;stroke-miterlimit:4;stroke-dasharray:none;stroke-dashoffset:0;stroke-opacity:1"
       d="m 95.147953,167.31071 c 1.559399,-2.44406 16.059447,-2.91197 18.441597,-1.60362 2.94333,1.61656 14.04338,22.50268 11.75986,24.05426 -2.86867,1.94917 -21.01349,1.86683 -24.04889,1.06908 -2.793051,-0.73406 -8.018279,-20.59558 -6.152567,-23.51972 z"
       sodipodi:nodetypes="sssss" />
    <path
       id="rect1986-3"
       style="fill:#6a696b;fill-opacity:1;stroke:none;stroke-width:0.765;stroke-miterlimit:4;stroke-dasharray:none;stroke-dashoffset:0;stroke-opacity:1"
       d="m 97.329194,169.27326 c 1.5594,-2.44406 13.386756,-2.77834 15.768906,-1.46999 2.94333,1.61656 8.16345,9.67374 5.87993,11.22532 -2.86867,1.94917 -15.80173,1.06503 -18.83713,0.26728 -2.793055,-0.73406 -4.677416,-7.09847 -2.811706,-10.02261 z"
       sodipodi:nodetypes="sssss" />
    <path
       id="rect2029"
       style="fill:#6a696b;fill-opacity:1;stroke:none;stroke-width:0.765;stroke-miterlimit:4;stroke-dasharray:none;stroke-dashoffset:0;stroke-opacity:1"
       d="m 100.49334,182.14418 4.54359,0.13363 1.06907,2.80634 h -4.54358 z"
       sodipodi:nodetypes="ccccc" />
    <path
       id="rect2029-6"
       style="fill:#6a696b;fill-opacity:1;stroke:none;stroke-width:0.765;stroke-miterlimit:4;stroke-dasharray:none;stroke-dashoffset:0;stroke-opacity:1"
       d="m 108.64506,182.27782 4.94449,-0.13364 1.46998,3.07361 h -5.34539 z"
       sodipodi:nodetypes="ccccc" />
    <path
       id="rect2029-0"
       style="fill:#6a696b;fill-opacity:1;stroke:none;stroke-width:0.765;stroke-miterlimit:4;stroke-dasharray:none;stroke-dashoffset:0;stroke-opacity:1"
       d="m 116.26224,181.74328 4.11837,-0.40091 1.91951,3.19914 -4.9688,0.14174 z"
       sodipodi:nodetypes="ccccc" />
    <path
       id="rect2029-4"
       style="fill:#6a696b;fill-opacity:1;stroke:none;stroke-width:0.765;stroke-miterlimit:4;stroke-dasharray:none;stroke-dashoffset:0;stroke-opacity:1"
       d="m 102.09159,186.67166 4.54359,0.13363 1.06907,2.80634 h -4.54358 z"
       sodipodi:nodetypes="ccccc" />
    <path
       id="rect2029-1"
       style="fill:#6a696b;fill-opacity:1;stroke:none;stroke-width:0.765;stroke-miterlimit:4;stroke-dasharray:none;stroke-dashoffset:0;stroke-opacity:1"
       d="m 110.31886,186.4366 4.96882,-0.0243 1.68328,2.91704 -5.77201,0.28344 z"
       sodipodi:nodetypes="ccccc" />
    <path
       id="rect2029-18"
       style="fill:#6a696b;fill-opacity:1;stroke:none;stroke-width:0.765;stroke-miterlimit:4;stroke-dasharray:none;stroke-dashoffset:0;stroke-opacity:1"
       d="m 118.23846,186.09934 3.97662,-0.008 1.35255,3.08983 -4.40183,-0.0945 z"
       sodipodi:nodetypes="ccccc" />
  </g>
</svg>
